<?xml version="1.0" encoding="UTF-8"?>
<!DOCTYPE svg PUBLIC "-//W3C//DTD SVG 1.1//EN"
  "http://www.w3.org/Graphics/SVG/1.1/DTD/svg11.dtd">
<!-- Created with Inkpad (http://www.taptrix.com/) --><svg xmlns:inkpad="http://taptrix.com/inkpad/svg_extensions" height="37pt" xmlns:xlink="http://www.w3.org/1999/xlink" xmlns="http://www.w3.org/2000/svg" width="37pt" version="1.1" viewBox="0,0,37,37">
<defs/>
<g id="Untitled" inkpad:layerName="Untitled">
<path d="M0+18.4497C0+8.26019+8.26019+0+18.4497+0C28.6391+0+36.8993+8.26019+36.8993+18.4497C36.8993+28.6391+28.6391+36.8993+18.4497+36.8993C8.26019+36.8993+0+28.6391+0+18.4497Z" opacity="1" fill="#000000"/>
<path d="M1.5102+18.4497C1.5102+9.09426+9.09426+1.5102+18.4497+1.5102C27.8051+1.5102+35.3891+9.09426+35.3891+18.4497C35.3891+27.8051+27.8051+35.3891+18.4497+35.3891C9.09426+35.3891+1.5102+27.8051+1.5102+18.4497Z" opacity="1" fill="#fede58"/>
<path d="M0+0M16.3605+33.4762C10.2694+32.419+6.59456+27.6871+5.68844+21.7469L5.68844+21.3442L4.42993+21.2939L4.37959+20.3878L28.5932+20.3878C28.8952+21.0422+29.0966+21.7469+29.2476+22.4517C29.902+27.1837+27.3347+29.8014+23.5088+32.1673C21.2435+33.3252+18.8272+33.6272+16.3605+33.4762Z" opacity="1" fill="#000000"/>
<path d="M0+0M18.7265+32.5701C21.3442+32.268+23.6599+31.1605+25.6735+29.449C27.083+28.1905+27.9891+26.6299+28.2408+25.0694C28.4422+24.0626+28.2912+22.2+27.9891+21.5456L6.69524+21.4952C6.59456+24.3143+8.6585+27.4354+10.4204+29.3986C11.981+31.1102+14.0449+32.117+16.2599+32.5701C16.8136+32.6707+18.1728+32.6707+18.7265+32.5701Z" opacity="1" fill="#871945"/>
<path d="M0+0M3.82585+17.2163C3.17143+15.9075+3.17143+14.3469+3.37279+12.9374C3.67483+11.5782+4.27891+10.3197+5.13469+9.51429C6.19184+8.50748+7.6517+8.35646+9.01088+8.60816C9.76599+8.80952+10.4204+9.21224+10.9741+9.76599C11.8803+10.6218+12.4844+11.7796+12.7864+13.1388C12.9878+14.1456+12.9878+15.2027+12.7864+16.1592L12.4844+17.2163L3.82585+17.2163Z" opacity="1" fill="#000000"/>
<path d="M0+0M11.7796+16.2599C12.0313+15.9578+12.0816+14.2463+11.8803+13.3401C11.7293+12.5347+11.6789+12.5347+11.3769+12.8367C10.6721+13.5415+9.46395+13.5415+8.75918+12.8367C8.00408+11.9306+8.1551+10.7728+9.06122+10.068C9.21224+9.91701+9.31292+9.81633+9.31292+9.76599C9.26258+9.56463+8.20544+9.36327+7.60136+9.41361C5.48707+9.61497+4.70177+11.4272+4.26884+13.2898C4.11782+14.1456+4.2185+15.9578+4.4702+16.2599L11.7796+16.2599Z" opacity="1" fill="#ffffff"/>
<path d="M0+0M19.0286+17.2667C18.9279+17.1156+18.7265+16.2599+18.6762+15.8068C18.4245+14.3973+18.6258+12.9374+19.2299+11.6286C19.985+10.1184+21.2939+9.01088+22.8544+8.60816C24.3143+8.25578+25.7238+8.60816+26.9823+9.36327C28.2912+10.219+29.2476+11.8299+29.4993+13.4912C29.6+14.0952+29.6+15.1524+29.4993+15.7565C29.449+16.2599+29.2476+17.0653+29.0966+17.2667L19.0286+17.2667Z" opacity="1" fill="#000000"/>
<path d="M0+0M28.4422+16.3102C28.6435+16.0585+28.6939+14.5986+28.6435+13.7932C28.5429+13.0884+28.3415+12.585+28.2408+12.585C28.1905+12.585+28.0898+12.6857+27.9388+12.8367C27.083+13.6925+25.5728+13.4912+25.019+12.3837C24.6667+11.5782+24.8177+10.8231+25.4218+10.219C25.6231+10.0177+25.7741+9.81633+25.7741+9.76599C25.7741+9.76599+25.5728+9.66531+25.3714+9.61497C22.8041+8.75918+20.0857+10.6218+19.5823+13.6422C19.4313+14.3973+19.5823+15.8068+19.7333+16.3102L28.4422+16.3102Z" opacity="1" fill="#ffffff"/>
<path d="M0+0M25.3714+29.7007C25.3714+29.7007+23.0558+31.7143+20.0857+32.3687C16.7633+33.1238+14.3469+32.0163+14.3469+32.0163C14.3469+32.0163+15.0517+28.1905+19.0286+27.234C22.8544+26.3279+25.3714+29.7007+25.3714+29.7007Z" opacity="1" fill="#f9bedd"/>
</g>
</svg>
